<svg id="visual" viewBox="0 0 960 300" width="960" height="300" xmlns="http://www.w3.org/2000/svg" xmlns:xlink="http://www.w3.org/1999/xlink" version="1.1"><rect x="0" y="0" width="960" height="300" fill="#002233"></rect><path d="M0 165L5.2 159.3C10.3 153.7 20.7 142.3 31 143.5C41.3 144.7 51.7 158.3 62 165.3C72.3 172.3 82.7 172.7 93 166.3C103.3 160 113.7 147 124 140.8C134.3 134.7 144.7 135.3 155 141.5C165.3 147.7 175.7 159.3 186 170.7C196.3 182 206.7 193 217 191.3C227.3 189.7 237.7 175.3 248 166.7C258.3 158 268.7 155 279 147C289.3 139 299.7 126 310 122C320.3 118 330.7 123 341 127.8C351.3 132.7 361.7 137.3 372 135C382.3 132.7 392.7 123.3 403 120.2C413.3 117 423.7 120 434 129.2C444.3 138.3 454.7 153.7 464.8 159C475 164.3 485 159.7 495.2 156C505.3 152.3 515.7 149.7 526 154.2C536.3 158.7 546.7 170.3 557 167C567.3 163.7 577.7 145.3 588 132.2C598.3 119 608.7 111 619 105.3C629.3 99.7 639.7 96.3 650 99.7C660.3 103 670.7 113 681 120C691.3 127 701.7 131 712 132.8C722.3 134.7 732.7 134.3 743 136C753.3 137.7 763.7 141.3 774 140.8C784.3 140.3 794.7 135.7 805 135.5C815.3 135.3 825.7 139.7 836 134.5C846.3 129.3 856.7 114.7 867 118.7C877.3 122.7 887.7 145.3 898 153.5C908.3 161.7 918.7 155.3 929 142.7C939.3 130 949.7 111 954.8 101.5L960 92L960 0L954.8 0C949.7 0 939.3 0 929 0C918.7 0 908.3 0 898 0C887.7 0 877.3 0 867 0C856.7 0 846.3 0 836 0C825.7 0 815.3 0 805 0C794.7 0 784.3 0 774 0C763.7 0 753.3 0 743 0C732.7 0 722.3 0 712 0C701.7 0 691.3 0 681 0C670.7 0 660.3 0 650 0C639.7 0 629.3 0 619 0C608.7 0 598.3 0 588 0C577.7 0 567.3 0 557 0C546.7 0 536.3 0 526 0C515.7 0 505.3 0 495.2 0C485 0 475 0 464.8 0C454.7 0 444.3 0 434 0C423.7 0 413.3 0 403 0C392.7 0 382.3 0 372 0C361.7 0 351.3 0 341 0C330.7 0 320.3 0 310 0C299.7 0 289.3 0 279 0C268.7 0 258.3 0 248 0C237.7 0 227.3 0 217 0C206.7 0 196.3 0 186 0C175.7 0 165.3 0 155 0C144.7 0 134.3 0 124 0C113.7 0 103.3 0 93 0C82.7 0 72.3 0 62 0C51.7 0 41.3 0 31 0C20.7 0 10.3 0 5.2 0L0 0Z" fill="#3c31dd" stroke-linecap="round" stroke-linejoin="miter"></path></svg>