<svg id="visual" viewBox="0 0 960 300" width="960" height="300" xmlns="http://www.w3.org/2000/svg" xmlns:xlink="http://www.w3.org/1999/xlink" version="1.1"><rect x="0" y="0" width="960" height="300" fill="#002233"></rect><path d="M0 133L5.2 138.7C10.3 144.3 20.7 155.7 31 154.5C41.3 153.3 51.7 139.7 62 132.7C72.3 125.7 82.7 125.3 93 131.7C103.3 138 113.7 151 124 157.2C134.3 163.3 144.7 162.7 155 156.5C165.3 150.3 175.7 138.7 186 127.3C196.3 116 206.7 105 217 106.7C227.3 108.3 237.7 122.7 248 131.3C258.3 140 268.7 143 279 151C289.3 159 299.7 172 310 176C320.3 180 330.7 175 341 170.2C351.3 165.3 361.7 160.7 372 163C382.3 165.3 392.7 174.7 403 177.8C413.3 181 423.7 178 434 168.8C444.3 159.7 454.7 144.3 464.8 139C475 133.7 485 138.3 495.2 142C505.3 145.7 515.7 148.3 526 143.8C536.3 139.3 546.7 127.7 557 131C567.3 134.3 577.7 152.7 588 165.8C598.3 179 608.7 187 619 192.7C629.3 198.3 639.7 201.7 650 198.3C660.3 195 670.7 185 681 178C691.3 171 701.7 167 712 165.2C722.3 163.3 732.7 163.7 743 162C753.3 160.3 763.7 156.7 774 157.2C784.3 157.7 794.7 162.3 805 162.5C815.3 162.7 825.7 158.3 836 163.5C846.3 168.7 856.7 183.3 867 179.3C877.3 175.3 887.7 152.7 898 144.5C908.3 136.3 918.7 142.7 929 155.3C939.3 168 949.7 187 954.8 196.5L960 206L960 301L954.8 301C949.7 301 939.3 301 929 301C918.7 301 908.3 301 898 301C887.7 301 877.3 301 867 301C856.7 301 846.3 301 836 301C825.7 301 815.3 301 805 301C794.7 301 784.3 301 774 301C763.7 301 753.3 301 743 301C732.7 301 722.3 301 712 301C701.7 301 691.3 301 681 301C670.7 301 660.3 301 650 301C639.7 301 629.3 301 619 301C608.7 301 598.3 301 588 301C577.7 301 567.3 301 557 301C546.7 301 536.3 301 526 301C515.7 301 505.3 301 495.2 301C485 301 475 301 464.8 301C454.7 301 444.3 301 434 301C423.7 301 413.3 301 403 301C392.7 301 382.3 301 372 301C361.7 301 351.3 301 341 301C330.7 301 320.3 301 310 301C299.7 301 289.3 301 279 301C268.7 301 258.3 301 248 301C237.7 301 227.3 301 217 301C206.7 301 196.3 301 186 301C175.7 301 165.3 301 155 301C144.7 301 134.3 301 124 301C113.7 301 103.3 301 93 301C82.7 301 72.3 301 62 301C51.7 301 41.3 301 31 301C20.7 301 10.3 301 5.2 301L0 301Z" fill="#212121" stroke-linecap="round" stroke-linejoin="miter"></path></svg>