<svg id="visual" viewBox="0 0 960 300" width="960" height="300" xmlns="http://www.w3.org/2000/svg" xmlns:xlink="http://www.w3.org/1999/xlink" version="1.1"><rect x="0" y="0" width="960" height="300" fill="#001220"></rect><path d="M0 153L16 158C32 163 64 173 96 183.2C128 193.3 160 203.7 192 199C224 194.3 256 174.7 288 168.5C320 162.3 352 169.7 384 164.3C416 159 448 141 480 132.2C512 123.3 544 123.7 576 127.8C608 132 640 140 672 149.2C704 158.3 736 168.7 768 176.2C800 183.7 832 188.3 864 198.5C896 208.7 928 224.3 944 232.2L960 240L960 0L944 0C928 0 896 0 864 0C832 0 800 0 768 0C736 0 704 0 672 0C640 0 608 0 576 0C544 0 512 0 480 0C448 0 416 0 384 0C352 0 320 0 288 0C256 0 224 0 192 0C160 0 128 0 96 0C64 0 32 0 16 0L0 0Z" fill="#de7aa2"></path><path d="M0 109L16 118.3C32 127.7 64 146.3 96 147.2C128 148 160 131 192 136C224 141 256 168 288 174.7C320 181.3 352 167.7 384 153C416 138.3 448 122.7 480 114.5C512 106.3 544 105.7 576 105.8C608 106 640 107 672 119.3C704 131.7 736 155.3 768 159C800 162.7 832 146.3 864 144.8C896 143.3 928 156.7 944 163.3L960 170L960 0L944 0C928 0 896 0 864 0C832 0 800 0 768 0C736 0 704 0 672 0C640 0 608 0 576 0C544 0 512 0 480 0C448 0 416 0 384 0C352 0 320 0 288 0C256 0 224 0 192 0C160 0 128 0 96 0C64 0 32 0 16 0L0 0Z" fill="#e66c99"></path><path d="M0 157L16 150.7C32 144.3 64 131.7 96 124.3C128 117 160 115 192 117.8C224 120.7 256 128.3 288 135C320 141.7 352 147.3 384 151.7C416 156 448 159 480 155C512 151 544 140 576 139C608 138 640 147 672 153.5C704 160 736 164 768 160.5C800 157 832 146 864 141.5C896 137 928 139 944 140L960 141L960 0L944 0C928 0 896 0 864 0C832 0 800 0 768 0C736 0 704 0 672 0C640 0 608 0 576 0C544 0 512 0 480 0C448 0 416 0 384 0C352 0 320 0 288 0C256 0 224 0 192 0C160 0 128 0 96 0C64 0 32 0 16 0L0 0Z" fill="#ee5d8f"></path><path d="M0 108L16 109.3C32 110.7 64 113.3 96 113.2C128 113 160 110 192 104.8C224 99.7 256 92.3 288 93.8C320 95.3 352 105.7 384 107.3C416 109 448 102 480 99.5C512 97 544 99 576 98.5C608 98 640 95 672 93.7C704 92.3 736 92.7 768 97.8C800 103 832 113 864 107C896 101 928 79 944 68L960 57L960 0L944 0C928 0 896 0 864 0C832 0 800 0 768 0C736 0 704 0 672 0C640 0 608 0 576 0C544 0 512 0 480 0C448 0 416 0 384 0C352 0 320 0 288 0C256 0 224 0 192 0C160 0 128 0 96 0C64 0 32 0 16 0L0 0Z" fill="#f44a83"></path><path d="M0 63L16 64.8C32 66.7 64 70.3 96 76.3C128 82.3 160 90.7 192 87C224 83.3 256 67.7 288 58.7C320 49.7 352 47.3 384 48.7C416 50 448 55 480 53.8C512 52.7 544 45.3 576 45.2C608 45 640 52 672 59C704 66 736 73 768 72.5C800 72 832 64 864 63.3C896 62.7 928 69.3 944 72.7L960 76L960 0L944 0C928 0 896 0 864 0C832 0 800 0 768 0C736 0 704 0 672 0C640 0 608 0 576 0C544 0 512 0 480 0C448 0 416 0 384 0C352 0 320 0 288 0C256 0 224 0 192 0C160 0 128 0 96 0C64 0 32 0 16 0L0 0Z" fill="#fa3375"></path><path d="M0 39L16 36.3C32 33.7 64 28.3 96 29C128 29.7 160 36.3 192 34.3C224 32.3 256 21.7 288 24.5C320 27.3 352 43.7 384 52.2C416 60.7 448 61.3 480 56C512 50.7 544 39.3 576 32C608 24.7 640 21.3 672 26.3C704 31.3 736 44.7 768 46.2C800 47.7 832 37.3 864 35.5C896 33.7 928 40.3 944 43.7L960 47L960 0L944 0C928 0 896 0 864 0C832 0 800 0 768 0C736 0 704 0 672 0C640 0 608 0 576 0C544 0 512 0 480 0C448 0 416 0 384 0C352 0 320 0 288 0C256 0 224 0 192 0C160 0 128 0 96 0C64 0 32 0 16 0L0 0Z" fill="#ff0066"></path></svg>